<?xml version="1.0" encoding="iso-8859-1"?>
<!-- Generator: Adobe Illustrator 19.0.0, SVG Export Plug-In . SVG Version: 6.00 Build 0)  -->
<svg xmlns="http://www.w3.org/2000/svg" xmlns:xlink="http://www.w3.org/1999/xlink" version="1.1" id="Layer_1" x="0px" y="0px" viewBox="0 0 512 512" style="enable-background:new 0 0 512 512;" xml:space="preserve" width="512" height="512">
<path fill="#fff" d="M431.87,291.355l-57.224,56.835c-3.9,3.874-8.998,5.81-14.094,5.81c-5.142,0-10.28-1.97-14.19-5.906  c-7.783-7.837-7.74-20.5,0.097-28.284L390.568,276H166.515c-11.046,0-20-8.954-20-20s8.954-20,20-20h224.053l-44.108-43.81  c-7.837-7.784-7.88-20.447-0.097-28.284c7.784-7.838,20.447-7.881,28.284-0.097l57.175,56.787  C451.365,240.14,451.365,271.86,431.87,291.355z M85.515,0c-11.046,0-20,8.954-20,20v472c0,11.046,8.954,20,20,20s20-8.954,20-20V20  C105.515,8.954,96.561,0,85.515,0z"/>















</svg>
